<svg width="5029" height="1058" viewBox="0 0 5029 1058" fill="none" xmlns="http://www.w3.org/2000/svg">
<path d="M4662.66 890L4482.66 340H4637.66L4729.66 649C4734.99 667.667 4740.32 688 4745.66 710C4750.99 732 4754.99 749.667 4757.66 763C4760.99 749.667 4764.99 732 4769.66 710C4774.99 688 4779.99 668 4784.66 650L4875.66 340H5028.66L4850.66 890H4662.66Z" fill="white"/>
<path d="M4186.05 900C4137.38 900 4095.05 891 4059.05 873C4023.05 854.333 3995.05 828.667 3975.05 796C3955.71 762.667 3946.05 724 3946.05 680V550C3946.05 506 3955.71 467.667 3975.05 435C3995.05 401.667 4023.05 376 4059.05 358C4095.05 339.333 4137.38 330 4186.05 330C4235.38 330 4277.71 339.333 4313.05 358C4349.05 376 4376.71 401.667 4396.05 435C4416.05 467.667 4426.05 506 4426.05 550V680C4426.05 724 4416.05 762.667 4396.05 796C4376.71 828.667 4349.05 854.333 4313.05 873C4277.71 891 4235.38 900 4186.05 900ZM4186.05 770C4215.38 770 4237.71 762.333 4253.05 747C4268.38 731 4276.05 708.667 4276.05 680V550C4276.05 520.667 4268.38 498.333 4253.05 483C4237.71 467.667 4215.38 460 4186.05 460C4157.38 460 4135.05 467.667 4119.05 483C4103.71 498.333 4096.05 520.667 4096.05 550V680C4096.05 708.667 4103.71 731 4119.05 747C4135.05 762.333 4157.38 770 4186.05 770Z" fill="white"/>
<path d="M3620.44 900C3571.77 900 3529.1 891 3492.44 873C3455.77 854.333 3427.1 828.667 3406.44 796C3386.44 762.667 3376.44 724 3376.44 680V370C3376.44 325.333 3386.44 286.667 3406.44 254C3427.1 221.333 3455.77 196 3492.44 178C3529.1 159.333 3571.77 150 3620.44 150C3669.77 150 3712.44 159.333 3748.44 178C3785.1 196 3813.44 221.333 3833.44 254C3854.1 286.667 3864.44 325.333 3864.44 370H3714.44C3714.44 340.667 3706.1 318.333 3689.44 303C3673.44 287.667 3650.44 280 3620.44 280C3590.44 280 3567.1 287.667 3550.44 303C3534.44 318.333 3526.44 340.667 3526.44 370V680C3526.44 708.667 3534.44 731 3550.44 747C3567.1 762.333 3590.44 770 3620.44 770C3650.44 770 3673.44 762.333 3689.44 747C3706.1 731 3714.44 708.667 3714.44 680V617H3606.44V490H3864.44V680C3864.44 724 3854.1 762.667 3833.44 796C3813.44 828.667 3785.1 854.333 3748.44 873C3712.44 891 3669.77 900 3620.44 900Z" fill="white"/>
<path d="M2812.83 890V340H2957.83V445H3001.83L2957.83 480C2957.83 433.333 2971.16 396.667 2997.83 370C3024.49 343.333 3060.49 330 3105.83 330C3159.16 330 3201.83 348.667 3233.83 386C3266.49 423.333 3282.83 473 3282.83 535V890H3132.83V550C3132.83 521.333 3125.16 499.333 3109.83 484C3095.16 468 3074.16 460 3046.83 460C3020.16 460 2999.49 468 2984.83 484C2970.16 499.333 2962.83 521.333 2962.83 550V890H2812.83Z" fill="white"/>
<path d="M2406.22 900C2350.89 900 2306.89 885 2274.22 855C2242.22 825 2226.22 784.333 2226.22 733C2226.22 677.667 2245.22 635.333 2283.22 606C2321.89 576 2377.22 561 2449.22 561H2563.22V520C2563.22 498.667 2555.55 481.667 2540.22 469C2525.55 456.333 2505.55 450 2480.22 450C2456.89 450 2437.55 455.333 2422.22 466C2406.89 476.667 2397.55 491.333 2394.22 510H2249.22C2255.22 454.667 2279.22 411 2321.22 379C2363.89 346.333 2418.55 330 2485.22 330C2555.22 330 2610.55 347.333 2651.22 382C2692.55 416 2713.22 462 2713.22 520V890H2568.22V800H2544.22L2569.22 765C2569.22 806.333 2554.22 839.333 2524.22 864C2494.89 888 2455.55 900 2406.22 900ZM2462.22 790C2491.55 790 2515.55 782.333 2534.22 767C2553.55 751 2563.22 730.333 2563.22 705V646H2452.22C2429.55 646 2411.22 652.667 2397.22 666C2383.22 678.667 2376.22 695.667 2376.22 717C2376.22 739.667 2383.89 757.667 2399.22 771C2414.55 783.667 2435.55 790 2462.22 790Z" fill="white"/>
<path d="M1910.61 900C1861.94 900 1819.28 891 1782.61 873C1745.94 854.333 1717.61 828.667 1697.61 796C1677.61 762.667 1667.61 724 1667.61 680V550C1667.61 505.333 1677.61 466.667 1697.61 434C1717.61 401.333 1745.94 376 1782.61 358C1819.28 339.333 1861.94 330 1910.61 330C1983.28 330 2041.28 348.333 2084.61 385C2127.94 421.667 2150.94 471.667 2153.61 535H2003.61C2001.61 511.667 1992.28 493.333 1975.61 480C1959.61 466.667 1937.94 460 1910.61 460C1880.61 460 1857.61 467.667 1841.61 483C1825.61 498.333 1817.61 520.667 1817.61 550V680C1817.61 708.667 1825.61 731 1841.61 747C1857.61 762.333 1880.61 770 1910.61 770C1937.94 770 1959.61 763.667 1975.61 751C1992.28 737.667 2001.61 719 2003.61 695H2153.61C2150.94 758.333 2127.94 808.333 2084.61 845C2041.28 881.667 1983.28 900 1910.61 900Z" fill="white"/>
<path d="M1338 900C1286.67 900 1242 891.333 1204 874C1166 856.667 1136.67 832.333 1116 801C1095.33 769.667 1085 732.667 1085 690H1235C1235 714.667 1244.33 734.333 1263 749C1282.33 763 1308.33 770 1341 770C1372.33 770 1396.67 763 1414 749C1432 735 1441 715.667 1441 691C1441 669.667 1434.33 651.333 1421 636C1407.67 620.667 1389 610.333 1365 605L1291 588C1229 573.333 1180.67 546.333 1146 507C1112 467 1095 418.333 1095 361C1095 318.333 1104.67 281.333 1124 250C1144 218 1172 193.333 1208 176C1244 158.667 1286.67 150 1336 150C1410.67 150 1469.67 168.667 1513 206C1557 242.667 1579 292.333 1579 355H1429C1429 331.667 1420.67 313.333 1404 300C1388 286.667 1364.67 280 1334 280C1305.33 280 1283.33 286.667 1268 300C1252.67 312.667 1245 331 1245 355C1245 376.333 1251 394.667 1263 410C1275.67 424.667 1293.33 434.667 1316 440L1394 458C1458.67 472.667 1507.67 499.333 1541 538C1574.33 576 1591 624.667 1591 684C1591 726.667 1580.33 764.333 1559 797C1538.33 829.667 1509 855 1471 873C1433.67 891 1389.33 900 1338 900Z" fill="white"/>
<path fill-rule="evenodd" clip-rule="evenodd" d="M213 227H700C727.614 227 750 249.386 750 277V787C750 814.614 727.614 837 700 837H213C185.386 837 163 814.614 163 787V277C163 249.386 185.386 227 213 227ZM213 257C201.954 257 193 265.954 193 277V787C193 798.046 201.954 807 213 807H700C711.046 807 720 798.046 720 787V277C720 265.954 711.046 257 700 257H213Z" fill="white"/>
<path d="M357 255H734V818H357V255Z" fill="white"/>
<path fill-rule="evenodd" clip-rule="evenodd" d="M50 0H864C891.614 0 914 22.3858 914 50V164C914 191.614 891.614 214 864 214H50C22.3858 214 0 191.614 0 164V50C0 22.3858 22.3858 0 50 0ZM50 30C38.9543 30 30 38.9543 30 50V164C30 175.046 38.9543 184 50 184H864C875.046 184 884 175.046 884 164V50C884 38.9543 875.046 30 864 30H50Z" fill="white"/>
<path d="M357 31C357 28.2386 359.239 26 362 26H879C881.761 26 884 28.2386 884 31V185C884 187.761 881.761 190 879 190H362C359.239 190 357 187.761 357 185V31Z" fill="white"/>
<path fill-rule="evenodd" clip-rule="evenodd" d="M50 844H864C891.614 844 914 866.386 914 894V1008C914 1035.61 891.614 1058 864 1058H50C22.3858 1058 0 1035.61 0 1008V894C0 866.386 22.3858 844 50 844ZM50 874C38.9543 874 30 882.954 30 894V1008C30 1019.05 38.9543 1028 50 1028H864C875.046 1028 884 1019.05 884 1008V894C884 882.954 875.046 874 864 874H50Z" fill="white"/>
<path d="M357 875C357 872.239 359.239 870 362 870H879C881.761 870 884 872.239 884 875V1029C884 1031.76 881.761 1034 879 1034H362C359.239 1034 357 1031.76 357 1029V875Z" fill="white"/>
</svg>
